<mxfile host="app.diagrams.net" agent="Mozilla/5.0 (Windows NT 10.0; Win64; x64) AppleWebKit/537.36 (KHTML, like Gecko) Chrome/129.0.0.0 Safari/537.36" version="24.7.17">
  <diagram name="Page-1" id="o7kIMEYK-310EqKUlF99">
    <mxGraphModel dx="5154" dy="3066" grid="1" gridSize="10" guides="1" tooltips="1" connect="1" arrows="1" fold="1" page="1" pageScale="1" pageWidth="827" pageHeight="1169" math="0" shadow="0">
      <root>
        <mxCell id="0" />
        <mxCell id="1" parent="0" />
        <mxCell id="90bc_227XYWwVIrQK2IH-6" value="" style="group" parent="1" vertex="1" connectable="0">
          <mxGeometry x="30" y="-767.5" width="480" height="334" as="geometry" />
        </mxCell>
        <mxCell id="cpDbJY7yWL2hBllV0yWN-19" value="&lt;b&gt;venu&amp;nbsp; &amp;nbsp;table&lt;/b&gt;" style="rounded=1;whiteSpace=wrap;html=1;fillColor=#ffffff;strokeColor=#b85450;" parent="90bc_227XYWwVIrQK2IH-6" vertex="1">
          <mxGeometry x="175.32623376623374" y="126.32378109452735" width="124.67532467532466" height="49.850746268656714" as="geometry" />
        </mxCell>
        <mxCell id="cpDbJY7yWL2hBllV0yWN-20" value="" style="endArrow=none;html=1;rounded=1;exitX=0;exitY=0;exitDx=0;exitDy=0;entryX=0.5;entryY=1;entryDx=0;entryDy=0;" parent="90bc_227XYWwVIrQK2IH-6" source="cpDbJY7yWL2hBllV0yWN-19" target="cpDbJY7yWL2hBllV0yWN-21" edge="1">
          <mxGeometry width="50" height="50" relative="1" as="geometry">
            <mxPoint x="165.19480519480518" y="142.07462686567163" as="sourcePoint" />
            <mxPoint x="126.23376623376623" y="92.22388059701493" as="targetPoint" />
          </mxGeometry>
        </mxCell>
        <mxCell id="cpDbJY7yWL2hBllV0yWN-21" value="&lt;u&gt;venu_id&lt;/u&gt;" style="ellipse;whiteSpace=wrap;html=1;rounded=1;points=[[0,0,0,0,0],[0,0.5,0,0,0],[0,1,0,0,0],[0.5,0,0,0,0],[0.5,1,0,0,0],[1,0,0,0,0],[1,0.5,0,0,0],[1,1,0,0,0]];fillColor=#ffb6b3;strokeColor=#b85450;" parent="90bc_227XYWwVIrQK2IH-6" vertex="1">
          <mxGeometry x="-9.090129870129875" y="50.00129353233831" width="109.09090909090908" height="58.159203980099505" as="geometry" />
        </mxCell>
        <mxCell id="cpDbJY7yWL2hBllV0yWN-22" value="" style="endArrow=none;html=1;rounded=1;entryX=0.5;entryY=1;entryDx=0;entryDy=0;exitX=0.75;exitY=0;exitDx=0;exitDy=0;" parent="90bc_227XYWwVIrQK2IH-6" source="cpDbJY7yWL2hBllV0yWN-19" target="cpDbJY7yWL2hBllV0yWN-23" edge="1">
          <mxGeometry width="50" height="50" relative="1" as="geometry">
            <mxPoint x="228.3116883116883" y="141.24378109452735" as="sourcePoint" />
            <mxPoint x="280.5194805194805" y="91.39303482587064" as="targetPoint" />
          </mxGeometry>
        </mxCell>
        <mxCell id="cpDbJY7yWL2hBllV0yWN-23" value="venu_name" style="ellipse;whiteSpace=wrap;html=1;rounded=1;fillColor=#ffb6b3;strokeColor=#b85450;" parent="90bc_227XYWwVIrQK2IH-6" vertex="1">
          <mxGeometry x="254.03051948051947" y="-5.92" width="109.09090909090908" height="58.159203980099505" as="geometry" />
        </mxCell>
        <mxCell id="cpDbJY7yWL2hBllV0yWN-24" value="" style="endArrow=none;html=1;rounded=1;exitX=1;exitY=0;exitDx=0;exitDy=0;entryX=0.5;entryY=1;entryDx=0;entryDy=0;" parent="90bc_227XYWwVIrQK2IH-6" source="cpDbJY7yWL2hBllV0yWN-19" target="cpDbJY7yWL2hBllV0yWN-25" edge="1">
          <mxGeometry width="50" height="50" relative="1" as="geometry">
            <mxPoint x="289.09090909090907" y="141.24378109452735" as="sourcePoint" />
            <mxPoint x="405.19480519480516" y="113.82587064676616" as="targetPoint" />
          </mxGeometry>
        </mxCell>
        <mxCell id="cpDbJY7yWL2hBllV0yWN-25" value="location&lt;div&gt;&lt;br&gt;&lt;/div&gt;" style="ellipse;whiteSpace=wrap;html=1;rounded=1;fillColor=#ffb6b3;strokeColor=#b85450;" parent="90bc_227XYWwVIrQK2IH-6" vertex="1">
          <mxGeometry x="350.0005194805194" y="31.99537313432836" width="109.09090909090908" height="58.159203980099505" as="geometry" />
        </mxCell>
        <mxCell id="cpDbJY7yWL2hBllV0yWN-26" value="" style="endArrow=none;html=1;rounded=1;exitX=0;exitY=0.5;exitDx=0;exitDy=0;" parent="90bc_227XYWwVIrQK2IH-6" source="cpDbJY7yWL2hBllV0yWN-19" target="cpDbJY7yWL2hBllV0yWN-27" edge="1">
          <mxGeometry width="50" height="50" relative="1" as="geometry">
            <mxPoint x="95.06493506493506" y="220.17412935323384" as="sourcePoint" />
            <mxPoint x="56.1038961038961" y="170.3233830845771" as="targetPoint" />
          </mxGeometry>
        </mxCell>
        <mxCell id="cpDbJY7yWL2hBllV0yWN-27" value="description" style="ellipse;whiteSpace=wrap;html=1;rounded=1;fillColor=#ffb6b3;strokeColor=#b85450;" parent="90bc_227XYWwVIrQK2IH-6" vertex="1">
          <mxGeometry x="-20" y="126.32278606965174" width="109.09090909090908" height="51.51243781094527" as="geometry" />
        </mxCell>
        <mxCell id="cpDbJY7yWL2hBllV0yWN-28" value="" style="endArrow=none;html=1;rounded=1;exitX=0;exitY=0.5;exitDx=0;exitDy=0;entryX=1;entryY=0.5;entryDx=0;entryDy=0;" parent="90bc_227XYWwVIrQK2IH-6" source="cpDbJY7yWL2hBllV0yWN-29" target="cpDbJY7yWL2hBllV0yWN-19" edge="1">
          <mxGeometry width="50" height="50" relative="1" as="geometry">
            <mxPoint x="345.39740259740256" y="168.7198507462686" as="sourcePoint" />
            <mxPoint x="289.09257144114855" y="163.61047687916252" as="targetPoint" />
          </mxGeometry>
        </mxCell>
        <mxCell id="cpDbJY7yWL2hBllV0yWN-29" value="image" style="ellipse;whiteSpace=wrap;html=1;rounded=1;fillColor=#ffb6b3;strokeColor=#b85450;" parent="90bc_227XYWwVIrQK2IH-6" vertex="1">
          <mxGeometry x="407.52688311688314" y="108.15995024875622" width="109.09090909090908" height="51.51243781094527" as="geometry" />
        </mxCell>
        <mxCell id="cpDbJY7yWL2hBllV0yWN-30" value="" style="endArrow=none;html=1;rounded=1;exitX=0;exitY=1;exitDx=0;exitDy=0;entryX=1;entryY=0;entryDx=0;entryDy=0;" parent="90bc_227XYWwVIrQK2IH-6" source="cpDbJY7yWL2hBllV0yWN-19" target="cpDbJY7yWL2hBllV0yWN-31" edge="1">
          <mxGeometry width="50" height="50" relative="1" as="geometry">
            <mxPoint x="164.4155844155844" y="192.8226865671641" as="sourcePoint" />
            <mxPoint x="79.48218183075893" y="191.0948549886152" as="targetPoint" />
          </mxGeometry>
        </mxCell>
        <mxCell id="cpDbJY7yWL2hBllV0yWN-31" value="final price" style="ellipse;whiteSpace=wrap;html=1;rounded=1;fillColor=#ffb6b3;strokeColor=#b85450;" parent="90bc_227XYWwVIrQK2IH-6" vertex="1">
          <mxGeometry x="-9.09" y="199.99736318407963" width="109.09090909090908" height="51.51243781094527" as="geometry" />
        </mxCell>
        <mxCell id="cpDbJY7yWL2hBllV0yWN-32" value="advance_price" style="ellipse;whiteSpace=wrap;html=1;rounded=1;fillColor=#ffb6b3;strokeColor=#b85450;" parent="90bc_227XYWwVIrQK2IH-6" vertex="1">
          <mxGeometry x="50.002077922077916" y="269.9975621890547" width="109.09090909090908" height="51.51243781094527" as="geometry" />
        </mxCell>
        <mxCell id="cpDbJY7yWL2hBllV0yWN-33" value="" style="endArrow=none;html=1;rounded=1;entryX=0.25;entryY=1;entryDx=0;entryDy=0;exitX=0.5;exitY=0;exitDx=0;exitDy=0;" parent="90bc_227XYWwVIrQK2IH-6" source="cpDbJY7yWL2hBllV0yWN-32" target="cpDbJY7yWL2hBllV0yWN-19" edge="1">
          <mxGeometry width="50" height="50" relative="1" as="geometry">
            <mxPoint x="140.64935064935065" y="282.4875621890547" as="sourcePoint" />
            <mxPoint x="179.6103896103896" y="240.9452736318408" as="targetPoint" />
          </mxGeometry>
        </mxCell>
        <mxCell id="cpDbJY7yWL2hBllV0yWN-34" value="" style="endArrow=none;html=1;rounded=1;entryX=0.5;entryY=1;entryDx=0;entryDy=0;exitX=0.5;exitY=0;exitDx=0;exitDy=0;" parent="90bc_227XYWwVIrQK2IH-6" source="cpDbJY7yWL2hBllV0yWN-35" target="cpDbJY7yWL2hBllV0yWN-19" edge="1">
          <mxGeometry width="50" height="50" relative="1" as="geometry">
            <mxPoint x="254.02597402597402" y="274.17910447761193" as="sourcePoint" />
            <mxPoint x="225.97402597402595" y="191.09452736318408" as="targetPoint" />
          </mxGeometry>
        </mxCell>
        <mxCell id="cpDbJY7yWL2hBllV0yWN-35" value="capacity" style="ellipse;whiteSpace=wrap;html=1;rounded=1;fillColor=#ffb6b3;strokeColor=#b85450;" parent="90bc_227XYWwVIrQK2IH-6" vertex="1">
          <mxGeometry x="300.0005194805195" y="298.9975621890547" width="109.09090909090908" height="51.51243781094527" as="geometry" />
        </mxCell>
        <mxCell id="cpDbJY7yWL2hBllV0yWN-36" value="verified" style="ellipse;whiteSpace=wrap;html=1;rounded=1;fillColor=#ffb6b3;strokeColor=#b85450;" parent="90bc_227XYWwVIrQK2IH-6" vertex="1">
          <mxGeometry x="350.0005194805194" y="228.99910447761192" width="109.09090909090908" height="51.51243781094527" as="geometry" />
        </mxCell>
        <mxCell id="cpDbJY7yWL2hBllV0yWN-37" value="status" style="ellipse;whiteSpace=wrap;html=1;rounded=1;fillColor=#ffb6b3;strokeColor=#b85450;" parent="90bc_227XYWwVIrQK2IH-6" vertex="1">
          <mxGeometry x="407.5290909090909" y="169.00452736318408" width="109.09090909090908" height="51.51243781094527" as="geometry" />
        </mxCell>
        <mxCell id="cpDbJY7yWL2hBllV0yWN-38" value="" style="endArrow=none;html=1;rounded=1;entryX=0;entryY=0;entryDx=0;entryDy=0;exitX=0.75;exitY=1;exitDx=0;exitDy=0;" parent="90bc_227XYWwVIrQK2IH-6" source="cpDbJY7yWL2hBllV0yWN-19" target="cpDbJY7yWL2hBllV0yWN-36" edge="1">
          <mxGeometry width="50" height="50" relative="1" as="geometry">
            <mxPoint x="267.27272727272725" y="191.92537313432837" as="sourcePoint" />
            <mxPoint x="316.3636363636363" y="207.71144278606965" as="targetPoint" />
          </mxGeometry>
        </mxCell>
        <mxCell id="cpDbJY7yWL2hBllV0yWN-39" value="" style="endArrow=none;html=1;rounded=1;exitX=1;exitY=0.75;exitDx=0;exitDy=0;entryX=0;entryY=0.5;entryDx=0;entryDy=0;" parent="90bc_227XYWwVIrQK2IH-6" source="cpDbJY7yWL2hBllV0yWN-19" target="cpDbJY7yWL2hBllV0yWN-37" edge="1">
          <mxGeometry width="50" height="50" relative="1" as="geometry">
            <mxPoint x="289.09090909090907" y="181.955223880597" as="sourcePoint" />
            <mxPoint x="356.8831168831169" y="271.6865671641791" as="targetPoint" />
          </mxGeometry>
        </mxCell>
        <mxCell id="bc5BipVRxAQqG_2fC1Nc-157" value="&lt;u&gt;User_id&lt;/u&gt;" style="ellipse;whiteSpace=wrap;html=1;rounded=1;fillColor=#ffb6b3;strokeColor=#b85450;" parent="90bc_227XYWwVIrQK2IH-6" vertex="1">
          <mxGeometry x="99.99774193548387" y="-5.920000000000032" width="112.90322580645162" height="70" as="geometry" />
        </mxCell>
        <mxCell id="bc5BipVRxAQqG_2fC1Nc-160" value="" style="endArrow=none;html=1;rounded=1;entryX=0.5;entryY=1;entryDx=0;entryDy=0;exitX=0.5;exitY=0;exitDx=0;exitDy=0;" parent="90bc_227XYWwVIrQK2IH-6" source="cpDbJY7yWL2hBllV0yWN-19" target="bc5BipVRxAQqG_2fC1Nc-157" edge="1">
          <mxGeometry width="50" height="50" relative="1" as="geometry">
            <mxPoint x="187.01" y="151" as="sourcePoint" />
            <mxPoint x="229.01" y="78" as="targetPoint" />
          </mxGeometry>
        </mxCell>
        <mxCell id="90bc_227XYWwVIrQK2IH-7" value="" style="group" parent="1" vertex="1" connectable="0">
          <mxGeometry x="590" y="-680" width="350" height="221.5" as="geometry" />
        </mxCell>
        <mxCell id="cpDbJY7yWL2hBllV0yWN-40" value="&lt;b&gt;venu_Facility&lt;/b&gt;" style="rounded=1;whiteSpace=wrap;html=1;fillColor=#ffffff;strokeColor=#b85450;" parent="90bc_227XYWwVIrQK2IH-7" vertex="1">
          <mxGeometry x="165.54054054054055" y="118.2921146953405" width="126.12612612612614" height="47.634408602150536" as="geometry" />
        </mxCell>
        <mxCell id="cpDbJY7yWL2hBllV0yWN-41" value="" style="endArrow=none;html=1;rounded=1;exitX=0.102;exitY=-0.051;exitDx=0;exitDy=0;exitPerimeter=0;" parent="90bc_227XYWwVIrQK2IH-7" source="cpDbJY7yWL2hBllV0yWN-40" edge="1">
          <mxGeometry width="50" height="50" relative="1" as="geometry">
            <mxPoint x="167.11711711711712" y="103.2078853046595" as="sourcePoint" />
            <mxPoint x="127.70270270270271" y="55.57347670250896" as="targetPoint" />
          </mxGeometry>
        </mxCell>
        <mxCell id="cpDbJY7yWL2hBllV0yWN-42" value="&lt;u&gt;facility_id&lt;/u&gt;" style="ellipse;whiteSpace=wrap;html=1;rounded=1;fillColor=#ffb6b3;strokeColor=#b85450;" parent="90bc_227XYWwVIrQK2IH-7" vertex="1">
          <mxGeometry x="70.94594594594595" width="110.36036036036037" height="55.57347670250896" as="geometry" />
        </mxCell>
        <mxCell id="cpDbJY7yWL2hBllV0yWN-43" value="" style="endArrow=none;html=1;rounded=1;exitX=0.75;exitY=0;exitDx=0;exitDy=0;entryX=0.5;entryY=1;entryDx=0;entryDy=0;" parent="90bc_227XYWwVIrQK2IH-7" source="cpDbJY7yWL2hBllV0yWN-40" target="cpDbJY7yWL2hBllV0yWN-44" edge="1">
          <mxGeometry width="50" height="50" relative="1" as="geometry">
            <mxPoint x="292.454954954955" y="102.41397849462365" as="sourcePoint" />
            <mxPoint x="409.9099099099099" y="76.21505376344086" as="targetPoint" />
          </mxGeometry>
        </mxCell>
        <mxCell id="cpDbJY7yWL2hBllV0yWN-44" value="Parking" style="ellipse;whiteSpace=wrap;html=1;rounded=1;fillColor=#ffb6b3;strokeColor=#b85450;" parent="90bc_227XYWwVIrQK2IH-7" vertex="1">
          <mxGeometry x="239.63963963963965" width="110.36036036036037" height="55.57347670250896" as="geometry" />
        </mxCell>
        <mxCell id="cpDbJY7yWL2hBllV0yWN-45" value="" style="endArrow=none;html=1;rounded=1;exitX=0;exitY=0.5;exitDx=0;exitDy=0;" parent="90bc_227XYWwVIrQK2IH-7" source="cpDbJY7yWL2hBllV0yWN-40" edge="1">
          <mxGeometry width="50" height="50" relative="1" as="geometry">
            <mxPoint x="96.17117117117118" y="177.83512544802866" as="sourcePoint" />
            <mxPoint x="104.21442814829764" y="127.99201293405902" as="targetPoint" />
          </mxGeometry>
        </mxCell>
        <mxCell id="cpDbJY7yWL2hBllV0yWN-46" value="no_of_rooms" style="ellipse;whiteSpace=wrap;html=1;rounded=1;fillColor=#ffb6b3;strokeColor=#b85450;" parent="90bc_227XYWwVIrQK2IH-7" vertex="1">
          <mxGeometry y="97.65053763440861" width="110.36036036036037" height="49.22222222222222" as="geometry" />
        </mxCell>
        <mxCell id="cpDbJY7yWL2hBllV0yWN-47" value="" style="endArrow=none;html=1;rounded=1;exitX=0;exitY=1;exitDx=0;exitDy=0;entryX=1;entryY=0;entryDx=0;entryDy=0;" parent="90bc_227XYWwVIrQK2IH-7" source="cpDbJY7yWL2hBllV0yWN-40" edge="1">
          <mxGeometry width="50" height="50" relative="1" as="geometry">
            <mxPoint x="166.32882882882885" y="151.6997132616487" as="sourcePoint" />
            <mxPoint x="94.2226721638267" y="178.70310428092003" as="targetPoint" />
          </mxGeometry>
        </mxCell>
        <mxCell id="cpDbJY7yWL2hBllV0yWN-48" value="food_type" style="ellipse;whiteSpace=wrap;html=1;rounded=1;fillColor=#ffb6b3;strokeColor=#b85450;" parent="90bc_227XYWwVIrQK2IH-7" vertex="1">
          <mxGeometry y="172.27777777777777" width="110.36036036036037" height="49.22222222222222" as="geometry" />
        </mxCell>
        <mxCell id="bc5BipVRxAQqG_2fC1Nc-176" value="MANY" style="text;html=1;align=center;verticalAlign=middle;resizable=0;points=[];autosize=1;strokeColor=none;fillColor=none;" parent="90bc_227XYWwVIrQK2IH-7" vertex="1">
          <mxGeometry x="210" y="67.64999999999998" width="60" height="30" as="geometry" />
        </mxCell>
        <mxCell id="90bc_227XYWwVIrQK2IH-8" value="" style="group" parent="1" vertex="1" connectable="0">
          <mxGeometry x="-560" y="173.5" width="627" height="445" as="geometry" />
        </mxCell>
        <mxCell id="IA1sd14LEg_ALcvdbZs_-33" value="" style="group" parent="90bc_227XYWwVIrQK2IH-8" vertex="1" connectable="0">
          <mxGeometry x="-50" y="26.5" width="623" height="394.46527012127893" as="geometry" />
        </mxCell>
        <mxCell id="cpDbJY7yWL2hBllV0yWN-56" value="&lt;b&gt;booking_table&lt;/b&gt;" style="rounded=1;whiteSpace=wrap;html=1;fillColor=#ffffff;strokeColor=#b85450;" parent="IA1sd14LEg_ALcvdbZs_-33" vertex="1">
          <mxGeometry x="207" y="166.81367144432195" width="160" height="58.87541345093716" as="geometry" />
        </mxCell>
        <mxCell id="cpDbJY7yWL2hBllV0yWN-57" value="" style="endArrow=none;html=1;rounded=1;entryX=1;entryY=0.5;entryDx=0;entryDy=0;exitX=0.019;exitY=0.394;exitDx=0;exitDy=0;exitPerimeter=0;" parent="IA1sd14LEg_ALcvdbZs_-33" edge="1" target="cpDbJY7yWL2hBllV0yWN-58" source="cpDbJY7yWL2hBllV0yWN-56">
          <mxGeometry width="50" height="50" relative="1" as="geometry">
            <mxPoint x="200" y="190" as="sourcePoint" />
            <mxPoint x="158" y="108.91951488423373" as="targetPoint" />
          </mxGeometry>
        </mxCell>
        <mxCell id="cpDbJY7yWL2hBllV0yWN-58" value="&lt;u&gt;user_id&lt;/u&gt;" style="ellipse;whiteSpace=wrap;html=1;rounded=1;fillColor=#ffb6b3;strokeColor=#b85450;" parent="IA1sd14LEg_ALcvdbZs_-33" vertex="1">
          <mxGeometry x="-30" y="120.00153252480705" width="140" height="68.68798235942667" as="geometry" />
        </mxCell>
        <mxCell id="cpDbJY7yWL2hBllV0yWN-59" value="" style="endArrow=none;html=1;rounded=1;exitX=1;exitY=0;exitDx=0;exitDy=0;entryX=0.5;entryY=1;entryDx=0;entryDy=0;" parent="IA1sd14LEg_ALcvdbZs_-33" target="cpDbJY7yWL2hBllV0yWN-60" edge="1">
          <mxGeometry width="50" height="50" relative="1" as="geometry">
            <mxPoint x="289" y="166.81367144432195" as="sourcePoint" />
            <mxPoint x="356" y="107.9382579933848" as="targetPoint" />
          </mxGeometry>
        </mxCell>
        <mxCell id="cpDbJY7yWL2hBllV0yWN-60" value="venu_id" style="ellipse;whiteSpace=wrap;html=1;rounded=1;fillColor=#ffb6b3;strokeColor=#b85450;" parent="IA1sd14LEg_ALcvdbZs_-33" vertex="1">
          <mxGeometry x="252" width="140" height="68.68798235942667" as="geometry" />
        </mxCell>
        <mxCell id="cpDbJY7yWL2hBllV0yWN-61" value="" style="endArrow=none;html=1;rounded=1;exitX=1;exitY=0;exitDx=0;exitDy=0;entryX=0.5;entryY=1;entryDx=0;entryDy=0;" parent="IA1sd14LEg_ALcvdbZs_-33" target="cpDbJY7yWL2hBllV0yWN-62" edge="1">
          <mxGeometry width="50" height="50" relative="1" as="geometry">
            <mxPoint x="367" y="166.81367144432195" as="sourcePoint" />
            <mxPoint x="516" y="134.4321940463065" as="targetPoint" />
          </mxGeometry>
        </mxCell>
        <mxCell id="cpDbJY7yWL2hBllV0yWN-62" value="&lt;div&gt;Booking_date&lt;/div&gt;" style="ellipse;whiteSpace=wrap;html=1;rounded=1;fillColor=#ffb6b3;strokeColor=#b85450;" parent="IA1sd14LEg_ALcvdbZs_-33" vertex="1">
          <mxGeometry x="406" y="29.43770672546858" width="140" height="68.68798235942667" as="geometry" />
        </mxCell>
        <mxCell id="cpDbJY7yWL2hBllV0yWN-63" value="" style="endArrow=none;html=1;rounded=1;entryX=0.731;entryY=0.139;entryDx=0;entryDy=0;entryPerimeter=0;" parent="IA1sd14LEg_ALcvdbZs_-33" edge="1" target="cpDbJY7yWL2hBllV0yWN-66">
          <mxGeometry width="50" height="50" relative="1" as="geometry">
            <mxPoint x="245" y="225.6890848952591" as="sourcePoint" />
            <mxPoint x="165" y="348.34619625137816" as="targetPoint" />
          </mxGeometry>
        </mxCell>
        <mxCell id="cpDbJY7yWL2hBllV0yWN-65" value="" style="endArrow=none;html=1;rounded=1;exitX=0;exitY=1;exitDx=0;exitDy=0;" parent="IA1sd14LEg_ALcvdbZs_-33" source="cpDbJY7yWL2hBllV0yWN-64" edge="1">
          <mxGeometry width="50" height="50" relative="1" as="geometry">
            <mxPoint x="505" y="144.24476295479604" as="sourcePoint" />
            <mxPoint x="367.002133349474" y="193.22949388266497" as="targetPoint" />
          </mxGeometry>
        </mxCell>
        <mxCell id="cpDbJY7yWL2hBllV0yWN-67" value="" style="endArrow=none;html=1;rounded=1;exitX=0;exitY=1;exitDx=0;exitDy=0;entryX=1;entryY=0;entryDx=0;entryDy=0;" parent="IA1sd14LEg_ALcvdbZs_-33" source="cpDbJY7yWL2hBllV0yWN-56" target="cpDbJY7yWL2hBllV0yWN-68" edge="1">
          <mxGeometry width="50" height="50" relative="1" as="geometry">
            <mxPoint x="207" y="227.73009922822484" as="sourcePoint" />
            <mxPoint x="98.00213334947398" y="225.68947183194825" as="targetPoint" />
          </mxGeometry>
        </mxCell>
        <mxCell id="cpDbJY7yWL2hBllV0yWN-68" value="final price" style="ellipse;whiteSpace=wrap;html=1;rounded=1;fillColor=#ffb6b3;strokeColor=#b85450;" parent="IA1sd14LEg_ALcvdbZs_-33" vertex="1">
          <mxGeometry x="-10" y="209.99815876515987" width="140" height="60.83792723263506" as="geometry" />
        </mxCell>
        <mxCell id="cpDbJY7yWL2hBllV0yWN-69" value="" style="endArrow=none;html=1;rounded=1;entryX=0.25;entryY=1;entryDx=0;entryDy=0;exitX=0.5;exitY=0;exitDx=0;exitDy=0;" parent="IA1sd14LEg_ALcvdbZs_-33" source="cpDbJY7yWL2hBllV0yWN-70" edge="1">
          <mxGeometry width="50" height="50" relative="1" as="geometry">
            <mxPoint x="322" y="323.81477398015437" as="sourcePoint" />
            <mxPoint x="286" y="225.6890848952591" as="targetPoint" />
          </mxGeometry>
        </mxCell>
        <mxCell id="cpDbJY7yWL2hBllV0yWN-70" value="booking_status" style="ellipse;whiteSpace=wrap;html=1;rounded=1;fillColor=#ffb6b3;strokeColor=#b85450;" parent="IA1sd14LEg_ALcvdbZs_-33" vertex="1">
          <mxGeometry x="190" y="333.6273428886439" width="140" height="60.83792723263506" as="geometry" />
        </mxCell>
        <mxCell id="cpDbJY7yWL2hBllV0yWN-71" value="event_type" style="ellipse;whiteSpace=wrap;html=1;rounded=1;fillColor=#ffb6b3;strokeColor=#b85450;" parent="IA1sd14LEg_ALcvdbZs_-33" vertex="1">
          <mxGeometry x="332" y="324.00477398015437" width="140" height="60.83792723263506" as="geometry" />
        </mxCell>
        <mxCell id="cpDbJY7yWL2hBllV0yWN-72" value="shift" style="ellipse;whiteSpace=wrap;html=1;rounded=1;fillColor=#ffb6b3;strokeColor=#b85450;" parent="IA1sd14LEg_ALcvdbZs_-33" vertex="1">
          <mxGeometry x="450" y="272.7890848952591" width="140" height="60.83792723263506" as="geometry" />
        </mxCell>
        <mxCell id="cpDbJY7yWL2hBllV0yWN-73" value="" style="endArrow=none;html=1;rounded=1;exitX=0.822;exitY=1.024;exitDx=0;exitDy=0;exitPerimeter=0;entryX=0;entryY=0;entryDx=0;entryDy=0;" parent="IA1sd14LEg_ALcvdbZs_-33" source="cpDbJY7yWL2hBllV0yWN-56" target="cpDbJY7yWL2hBllV0yWN-71" edge="1">
          <mxGeometry width="50" height="50" relative="1" as="geometry">
            <mxPoint x="352" y="294.37706725468576" as="sourcePoint" />
            <mxPoint x="402" y="245.31422271223815" as="targetPoint" />
          </mxGeometry>
        </mxCell>
        <mxCell id="cpDbJY7yWL2hBllV0yWN-74" value="" style="endArrow=none;html=1;rounded=1;exitX=1;exitY=0.75;exitDx=0;exitDy=0;entryX=0;entryY=0.5;entryDx=0;entryDy=0;" parent="IA1sd14LEg_ALcvdbZs_-33" source="cpDbJY7yWL2hBllV0yWN-56" target="cpDbJY7yWL2hBllV0yWN-72" edge="1">
          <mxGeometry width="50" height="50" relative="1" as="geometry">
            <mxPoint x="367" y="214.8952590959206" as="sourcePoint" />
            <mxPoint x="454" y="320.8710033076075" as="targetPoint" />
          </mxGeometry>
        </mxCell>
        <mxCell id="cpDbJY7yWL2hBllV0yWN-66" value="event_date" style="ellipse;whiteSpace=wrap;html=1;rounded=1;fillColor=#ffb6b3;strokeColor=#b85450;" parent="IA1sd14LEg_ALcvdbZs_-33" vertex="1">
          <mxGeometry x="30" y="299.9984895259096" width="140" height="70.65049614112458" as="geometry" />
        </mxCell>
        <mxCell id="cpDbJY7yWL2hBllV0yWN-64" value="booking_id" style="ellipse;whiteSpace=wrap;html=1;rounded=1;fillColor=#ffb6b3;strokeColor=#b85450;" parent="IA1sd14LEg_ALcvdbZs_-33" vertex="1">
          <mxGeometry x="472" y="108.92" width="141" height="62" as="geometry" />
        </mxCell>
        <mxCell id="H5CAzMnDQQBlazkq3BZs-16" value="MANY" style="text;html=1;align=center;verticalAlign=middle;resizable=0;points=[];autosize=1;strokeColor=none;fillColor=none;" vertex="1" parent="IA1sd14LEg_ALcvdbZs_-33">
          <mxGeometry x="230" y="78.92000000000002" width="60" height="30" as="geometry" />
        </mxCell>
        <mxCell id="90bc_227XYWwVIrQK2IH-11" value="" style="group" parent="1" vertex="1" connectable="0">
          <mxGeometry x="190.14" y="210" width="526" height="408.5" as="geometry" />
        </mxCell>
        <mxCell id="cpDbJY7yWL2hBllV0yWN-75" value="&lt;b&gt;payment_table&lt;/b&gt;" style="rounded=1;whiteSpace=wrap;html=1;fillColor=#ffffff;strokeColor=#b85450;" parent="90bc_227XYWwVIrQK2IH-11" vertex="1">
          <mxGeometry x="137" y="170" width="160" height="60" as="geometry" />
        </mxCell>
        <mxCell id="cpDbJY7yWL2hBllV0yWN-76" value="" style="endArrow=none;html=1;rounded=1;entryX=0.439;entryY=1.009;entryDx=0;entryDy=0;entryPerimeter=0;" parent="90bc_227XYWwVIrQK2IH-11" target="cpDbJY7yWL2hBllV0yWN-77" edge="1">
          <mxGeometry width="50" height="50" relative="1" as="geometry">
            <mxPoint x="218" y="168.5" as="sourcePoint" />
            <mxPoint x="72" y="111" as="targetPoint" />
          </mxGeometry>
        </mxCell>
        <mxCell id="cpDbJY7yWL2hBllV0yWN-77" value="&lt;u&gt;venu_id&lt;/u&gt;" style="ellipse;whiteSpace=wrap;html=1;rounded=1;fillColor=#ffb6b3;strokeColor=#b85450;" parent="90bc_227XYWwVIrQK2IH-11" vertex="1">
          <mxGeometry x="157" y="41" width="140" height="70" as="geometry" />
        </mxCell>
        <mxCell id="cpDbJY7yWL2hBllV0yWN-80" value="" style="endArrow=none;html=1;rounded=1;entryX=0.5;entryY=1;entryDx=0;entryDy=0;exitX=1;exitY=0;exitDx=0;exitDy=0;" parent="90bc_227XYWwVIrQK2IH-11" source="cpDbJY7yWL2hBllV0yWN-75" target="cpDbJY7yWL2hBllV0yWN-81" edge="1">
          <mxGeometry width="50" height="50" relative="1" as="geometry">
            <mxPoint x="263" y="182" as="sourcePoint" />
            <mxPoint x="430" y="137" as="targetPoint" />
          </mxGeometry>
        </mxCell>
        <mxCell id="cpDbJY7yWL2hBllV0yWN-81" value="&lt;div&gt;Booking_id&lt;/div&gt;" style="ellipse;whiteSpace=wrap;html=1;rounded=1;fillColor=#ffb6b3;strokeColor=#b85450;" parent="90bc_227XYWwVIrQK2IH-11" vertex="1">
          <mxGeometry x="320" y="30" width="140" height="70" as="geometry" />
        </mxCell>
        <mxCell id="cpDbJY7yWL2hBllV0yWN-82" value="" style="endArrow=none;html=1;rounded=1;exitX=0;exitY=0.5;exitDx=0;exitDy=0;entryX=1;entryY=0.25;entryDx=0;entryDy=0;" parent="90bc_227XYWwVIrQK2IH-11" source="cpDbJY7yWL2hBllV0yWN-83" target="cpDbJY7yWL2hBllV0yWN-75" edge="1">
          <mxGeometry width="50" height="50" relative="1" as="geometry">
            <mxPoint x="353.26" y="203.06999999999994" as="sourcePoint" />
            <mxPoint x="281.002133349474" y="196.92039432761476" as="targetPoint" />
          </mxGeometry>
        </mxCell>
        <mxCell id="cpDbJY7yWL2hBllV0yWN-83" value="advance_pay" style="ellipse;whiteSpace=wrap;html=1;rounded=1;fillColor=#ffb6b3;strokeColor=#b85450;" parent="90bc_227XYWwVIrQK2IH-11" vertex="1">
          <mxGeometry x="385" y="138" width="140" height="62" as="geometry" />
        </mxCell>
        <mxCell id="cpDbJY7yWL2hBllV0yWN-84" value="date_time" style="ellipse;whiteSpace=wrap;html=1;rounded=1;fillColor=#ffb6b3;strokeColor=#b85450;" parent="90bc_227XYWwVIrQK2IH-11" vertex="1">
          <mxGeometry x="320" y="330" width="140" height="62" as="geometry" />
        </mxCell>
        <mxCell id="cpDbJY7yWL2hBllV0yWN-85" value="pay_status" style="ellipse;whiteSpace=wrap;html=1;rounded=1;fillColor=#ffb6b3;strokeColor=#b85450;" parent="90bc_227XYWwVIrQK2IH-11" vertex="1">
          <mxGeometry x="386" y="230" width="140" height="62" as="geometry" />
        </mxCell>
        <mxCell id="cpDbJY7yWL2hBllV0yWN-86" value="" style="endArrow=none;html=1;rounded=1;exitX=0.822;exitY=1.024;exitDx=0;exitDy=0;exitPerimeter=0;entryX=0;entryY=0;entryDx=0;entryDy=0;" parent="90bc_227XYWwVIrQK2IH-11" source="cpDbJY7yWL2hBllV0yWN-75" target="cpDbJY7yWL2hBllV0yWN-84" edge="1">
          <mxGeometry width="50" height="50" relative="1" as="geometry">
            <mxPoint x="266" y="300" as="sourcePoint" />
            <mxPoint x="316" y="250" as="targetPoint" />
          </mxGeometry>
        </mxCell>
        <mxCell id="cpDbJY7yWL2hBllV0yWN-87" value="" style="endArrow=none;html=1;rounded=1;exitX=1;exitY=0.75;exitDx=0;exitDy=0;entryX=0;entryY=0.5;entryDx=0;entryDy=0;" parent="90bc_227XYWwVIrQK2IH-11" source="cpDbJY7yWL2hBllV0yWN-75" target="cpDbJY7yWL2hBllV0yWN-85" edge="1">
          <mxGeometry width="50" height="50" relative="1" as="geometry">
            <mxPoint x="281" y="219" as="sourcePoint" />
            <mxPoint x="368" y="327" as="targetPoint" />
          </mxGeometry>
        </mxCell>
        <mxCell id="IA1sd14LEg_ALcvdbZs_-35" value="" style="endArrow=none;html=1;rounded=1;" parent="90bc_227XYWwVIrQK2IH-11" edge="1">
          <mxGeometry width="50" height="50" relative="1" as="geometry">
            <mxPoint x="250" y="338.5" as="sourcePoint" />
            <mxPoint x="250" y="228.5" as="targetPoint" />
          </mxGeometry>
        </mxCell>
        <mxCell id="IA1sd14LEg_ALcvdbZs_-36" value="payment_id" style="ellipse;whiteSpace=wrap;html=1;rounded=1;fillColor=#ffb6b3;strokeColor=#b85450;" parent="90bc_227XYWwVIrQK2IH-11" vertex="1">
          <mxGeometry x="140" y="338.5" width="140" height="70" as="geometry" />
        </mxCell>
        <mxCell id="90bc_227XYWwVIrQK2IH-12" value="" style="group" parent="1" vertex="1" connectable="0">
          <mxGeometry x="270" y="690" width="544" height="292" as="geometry" />
        </mxCell>
        <mxCell id="cpDbJY7yWL2hBllV0yWN-88" value="&lt;b&gt;payment_method&lt;/b&gt;" style="rounded=1;whiteSpace=wrap;html=1;" parent="90bc_227XYWwVIrQK2IH-12" vertex="1">
          <mxGeometry x="155" y="180" width="160" height="60" as="geometry" />
        </mxCell>
        <mxCell id="cpDbJY7yWL2hBllV0yWN-89" value="" style="endArrow=none;html=1;rounded=1;exitX=0;exitY=0;exitDx=0;exitDy=0;" parent="90bc_227XYWwVIrQK2IH-12" source="cpDbJY7yWL2hBllV0yWN-88" edge="1">
          <mxGeometry width="50" height="50" relative="1" as="geometry">
            <mxPoint x="140" y="171" as="sourcePoint" />
            <mxPoint x="90" y="111" as="targetPoint" />
          </mxGeometry>
        </mxCell>
        <mxCell id="cpDbJY7yWL2hBllV0yWN-90" value="&lt;u&gt;card_id&lt;/u&gt;" style="ellipse;whiteSpace=wrap;html=1;rounded=1;fillColor=#ffb6b3;strokeColor=#b85450;" parent="90bc_227XYWwVIrQK2IH-12" vertex="1">
          <mxGeometry y="50" width="140" height="70" as="geometry" />
        </mxCell>
        <mxCell id="cpDbJY7yWL2hBllV0yWN-91" value="" style="endArrow=none;html=1;rounded=1;exitX=0.5;exitY=0;exitDx=0;exitDy=0;entryX=0.5;entryY=1;entryDx=0;entryDy=0;" parent="90bc_227XYWwVIrQK2IH-12" source="cpDbJY7yWL2hBllV0yWN-88" target="cpDbJY7yWL2hBllV0yWN-92" edge="1">
          <mxGeometry width="50" height="50" relative="1" as="geometry">
            <mxPoint x="221" y="170" as="sourcePoint" />
            <mxPoint x="288" y="110" as="targetPoint" />
          </mxGeometry>
        </mxCell>
        <mxCell id="cpDbJY7yWL2hBllV0yWN-92" value="payment_id" style="ellipse;whiteSpace=wrap;html=1;rounded=1;fillColor=#ffb6b3;strokeColor=#b85450;" parent="90bc_227XYWwVIrQK2IH-12" vertex="1">
          <mxGeometry x="184" width="140" height="70" as="geometry" />
        </mxCell>
        <mxCell id="cpDbJY7yWL2hBllV0yWN-93" value="" style="endArrow=none;html=1;rounded=1;exitX=1;exitY=0;exitDx=0;exitDy=0;entryX=0.5;entryY=1;entryDx=0;entryDy=0;" parent="90bc_227XYWwVIrQK2IH-12" source="cpDbJY7yWL2hBllV0yWN-88" target="cpDbJY7yWL2hBllV0yWN-94" edge="1">
          <mxGeometry width="50" height="50" relative="1" as="geometry">
            <mxPoint x="299" y="170" as="sourcePoint" />
            <mxPoint x="448" y="137" as="targetPoint" />
          </mxGeometry>
        </mxCell>
        <mxCell id="cpDbJY7yWL2hBllV0yWN-94" value="&lt;div&gt;card_holder_name&lt;/div&gt;" style="ellipse;whiteSpace=wrap;html=1;rounded=1;fillColor=#ffb6b3;strokeColor=#b85450;" parent="90bc_227XYWwVIrQK2IH-12" vertex="1">
          <mxGeometry x="338" y="30" width="140" height="70" as="geometry" />
        </mxCell>
        <mxCell id="cpDbJY7yWL2hBllV0yWN-95" value="" style="endArrow=none;html=1;rounded=1;exitX=0;exitY=0.5;exitDx=0;exitDy=0;entryX=0.994;entryY=0.364;entryDx=0;entryDy=0;entryPerimeter=0;" parent="90bc_227XYWwVIrQK2IH-12" source="cpDbJY7yWL2hBllV0yWN-96" target="cpDbJY7yWL2hBllV0yWN-88" edge="1">
          <mxGeometry width="50" height="50" relative="1" as="geometry">
            <mxPoint x="371.26" y="203.06999999999994" as="sourcePoint" />
            <mxPoint x="299.002133349474" y="196.92039432761476" as="targetPoint" />
          </mxGeometry>
        </mxCell>
        <mxCell id="cpDbJY7yWL2hBllV0yWN-96" value="card_number" style="ellipse;whiteSpace=wrap;html=1;rounded=1;fillColor=#ffb6b3;strokeColor=#b85450;" parent="90bc_227XYWwVIrQK2IH-12" vertex="1">
          <mxGeometry x="394" y="130" width="140" height="62" as="geometry" />
        </mxCell>
        <mxCell id="cpDbJY7yWL2hBllV0yWN-97" value="expire_date" style="ellipse;whiteSpace=wrap;html=1;rounded=1;fillColor=#ffb6b3;strokeColor=#b85450;" parent="90bc_227XYWwVIrQK2IH-12" vertex="1">
          <mxGeometry x="404" y="230" width="140" height="62" as="geometry" />
        </mxCell>
        <mxCell id="cpDbJY7yWL2hBllV0yWN-98" value="" style="endArrow=none;html=1;rounded=1;exitX=1;exitY=0.75;exitDx=0;exitDy=0;entryX=0;entryY=0.5;entryDx=0;entryDy=0;" parent="90bc_227XYWwVIrQK2IH-12" source="cpDbJY7yWL2hBllV0yWN-88" target="cpDbJY7yWL2hBllV0yWN-97" edge="1">
          <mxGeometry width="50" height="50" relative="1" as="geometry">
            <mxPoint x="299" y="219" as="sourcePoint" />
            <mxPoint x="386" y="327" as="targetPoint" />
          </mxGeometry>
        </mxCell>
        <mxCell id="bc5BipVRxAQqG_2fC1Nc-4" value="" style="group" parent="1" vertex="1" connectable="0">
          <mxGeometry x="414" y="-350" width="457.99525695152147" height="324.99999999999994" as="geometry" />
        </mxCell>
        <mxCell id="cpDbJY7yWL2hBllV0yWN-55" value="image_url" style="ellipse;whiteSpace=wrap;html=1;rounded=1;fillColor=#ffb6b3;strokeColor=#b85450;" parent="bc5BipVRxAQqG_2fC1Nc-4" vertex="1">
          <mxGeometry width="144.75566555054112" height="61.99999999999999" as="geometry" />
        </mxCell>
        <mxCell id="cpDbJY7yWL2hBllV0yWN-49" value="&lt;b&gt;venu_gallary&lt;/b&gt;" style="rounded=1;whiteSpace=wrap;html=1;fillColor=#ffffff;strokeColor=#b85450;" parent="bc5BipVRxAQqG_2fC1Nc-4" vertex="1">
          <mxGeometry x="80.41783277527037" y="150" width="165.43504634347556" height="59.99999999999999" as="geometry" />
        </mxCell>
        <mxCell id="cpDbJY7yWL2hBllV0yWN-50" value="" style="endArrow=none;html=1;rounded=1;exitX=0.75;exitY=0;exitDx=0;exitDy=0;entryX=0.408;entryY=1.018;entryDx=0;entryDy=0;entryPerimeter=0;" parent="bc5BipVRxAQqG_2fC1Nc-4" source="cpDbJY7yWL2hBllV0yWN-49" target="cpDbJY7yWL2hBllV0yWN-51" edge="1">
          <mxGeometry width="50" height="50" relative="1" as="geometry">
            <mxPoint x="71.1460804580966" y="180" as="sourcePoint" />
            <mxPoint x="19.447628475760496" y="120" as="targetPoint" />
          </mxGeometry>
        </mxCell>
        <mxCell id="cpDbJY7yWL2hBllV0yWN-51" value="&lt;u&gt;gallary_id&lt;/u&gt;" style="ellipse;whiteSpace=wrap;html=1;rounded=1;fillColor=#ffb6b3;strokeColor=#b85450;" parent="bc5BipVRxAQqG_2fC1Nc-4" vertex="1">
          <mxGeometry x="240.86175862570974" y="50" width="144.75566555054112" height="69.99999999999999" as="geometry" />
        </mxCell>
        <mxCell id="cpDbJY7yWL2hBllV0yWN-52" value="" style="endArrow=none;html=1;rounded=1;exitX=1;exitY=1;exitDx=0;exitDy=0;entryX=0;entryY=0.5;entryDx=0;entryDy=0;" parent="bc5BipVRxAQqG_2fC1Nc-4" source="cpDbJY7yWL2hBllV0yWN-49" target="cpDbJY7yWL2hBllV0yWN-53" edge="1">
          <mxGeometry width="50" height="50" relative="1" as="geometry">
            <mxPoint x="235.54715776192552" y="179" as="sourcePoint" />
            <mxPoint x="389.6085446692871" y="146" as="targetPoint" />
          </mxGeometry>
        </mxCell>
        <mxCell id="cpDbJY7yWL2hBllV0yWN-53" value="event_type" style="ellipse;whiteSpace=wrap;html=1;rounded=1;fillColor=#ffb6b3;strokeColor=#b85450;" parent="bc5BipVRxAQqG_2fC1Nc-4" vertex="1">
          <mxGeometry x="313.2395914009803" y="254.99999999999997" width="144.75566555054112" height="69.99999999999999" as="geometry" />
        </mxCell>
        <mxCell id="cpDbJY7yWL2hBllV0yWN-54" value="" style="endArrow=none;html=1;rounded=1;exitX=0.5;exitY=1;exitDx=0;exitDy=0;entryX=0.25;entryY=0;entryDx=0;entryDy=0;" parent="bc5BipVRxAQqG_2fC1Nc-4" source="cpDbJY7yWL2hBllV0yWN-55" target="cpDbJY7yWL2hBllV0yWN-49" edge="1">
          <mxGeometry width="50" height="50" relative="1" as="geometry">
            <mxPoint x="99.06324452855819" y="92" as="sourcePoint" />
            <mxPoint x="109.40293492502542" y="166" as="targetPoint" />
          </mxGeometry>
        </mxCell>
        <mxCell id="bc5BipVRxAQqG_2fC1Nc-139" value="" style="group" parent="1" vertex="1" connectable="0">
          <mxGeometry x="-850" y="-720" width="350" height="238.99999999999994" as="geometry" />
        </mxCell>
        <mxCell id="cpDbJY7yWL2hBllV0yWN-1" value="&lt;b&gt;Role_table&lt;/b&gt;" style="rounded=1;whiteSpace=wrap;html=1;fillColor=#ffffff;strokeColor=#b85450;" parent="bc5BipVRxAQqG_2fC1Nc-139" vertex="1">
          <mxGeometry x="110.52631578947364" y="167.29999999999995" width="110.52631578947368" height="71.7" as="geometry" />
        </mxCell>
        <mxCell id="cpDbJY7yWL2hBllV0yWN-5" value="Role_Name" style="ellipse;whiteSpace=wrap;html=1;rounded=1;fillColor=#ffb6b3;strokeColor=#b85450;" parent="bc5BipVRxAQqG_2fC1Nc-139" vertex="1">
          <mxGeometry x="221.0526315789474" width="128.94736842105263" height="83.64999999999999" as="geometry" />
        </mxCell>
        <mxCell id="cpDbJY7yWL2hBllV0yWN-2" value="" style="endArrow=none;html=1;rounded=1;exitX=0.25;exitY=0;exitDx=0;exitDy=0;" parent="bc5BipVRxAQqG_2fC1Nc-139" source="cpDbJY7yWL2hBllV0yWN-1" edge="1">
          <mxGeometry width="50" height="50" relative="1" as="geometry">
            <mxPoint x="112.36842105263156" y="155.35000000000002" as="sourcePoint" />
            <mxPoint x="66.31578947368416" y="83.64999999999998" as="targetPoint" />
          </mxGeometry>
        </mxCell>
        <mxCell id="cpDbJY7yWL2hBllV0yWN-3" value="&lt;u&gt;Role_id&lt;/u&gt;" style="ellipse;whiteSpace=wrap;html=1;rounded=1;fillColor=#ffb6b3;strokeColor=#b85450;" parent="bc5BipVRxAQqG_2fC1Nc-139" vertex="1">
          <mxGeometry width="128.9473684210526" height="83.64999999999999" as="geometry" />
        </mxCell>
        <mxCell id="cpDbJY7yWL2hBllV0yWN-4" value="" style="endArrow=none;html=1;rounded=1;exitX=0.975;exitY=0.035;exitDx=0;exitDy=0;exitPerimeter=0;" parent="bc5BipVRxAQqG_2fC1Nc-139" source="cpDbJY7yWL2hBllV0yWN-1" edge="1">
          <mxGeometry width="50" height="50" relative="1" as="geometry">
            <mxPoint x="377.6315789473683" y="155.35000000000002" as="sourcePoint" />
            <mxPoint x="285.52631578947364" y="83.64999999999998" as="targetPoint" />
          </mxGeometry>
        </mxCell>
        <mxCell id="bc5BipVRxAQqG_2fC1Nc-155" value="1" style="text;html=1;align=center;verticalAlign=middle;resizable=0;points=[];autosize=1;strokeColor=none;fillColor=none;" parent="bc5BipVRxAQqG_2fC1Nc-139" vertex="1">
          <mxGeometry x="170" y="121" width="30" height="30" as="geometry" />
        </mxCell>
        <mxCell id="bc5BipVRxAQqG_2fC1Nc-164" style="edgeStyle=orthogonalEdgeStyle;rounded=0;orthogonalLoop=1;jettySize=auto;html=1;exitX=1;exitY=0.25;exitDx=0;exitDy=0;entryX=0;entryY=0.5;entryDx=0;entryDy=0;" parent="1" source="cpDbJY7yWL2hBllV0yWN-6" target="bc5BipVRxAQqG_2fC1Nc-163" edge="1">
          <mxGeometry relative="1" as="geometry" />
        </mxCell>
        <mxCell id="H5CAzMnDQQBlazkq3BZs-8" style="edgeStyle=orthogonalEdgeStyle;rounded=0;orthogonalLoop=1;jettySize=auto;html=1;entryX=0.5;entryY=0;entryDx=0;entryDy=0;exitX=0.419;exitY=1.009;exitDx=0;exitDy=0;exitPerimeter=0;" edge="1" parent="1" source="cpDbJY7yWL2hBllV0yWN-6" target="H5CAzMnDQQBlazkq3BZs-7">
          <mxGeometry relative="1" as="geometry">
            <mxPoint x="-270" y="-480" as="sourcePoint" />
            <Array as="points">
              <mxPoint x="-193" y="-739" />
              <mxPoint x="-193" y="-737" />
              <mxPoint x="-195" y="-737" />
              <mxPoint x="-195" y="-480" />
              <mxPoint x="-250" y="-480" />
              <mxPoint x="-250" y="-305" />
              <mxPoint x="-443" y="-305" />
            </Array>
          </mxGeometry>
        </mxCell>
        <mxCell id="H5CAzMnDQQBlazkq3BZs-26" style="edgeStyle=orthogonalEdgeStyle;rounded=0;orthogonalLoop=1;jettySize=auto;html=1;exitX=0.25;exitY=1;exitDx=0;exitDy=0;entryX=0.5;entryY=0;entryDx=0;entryDy=0;" edge="1" parent="1" source="cpDbJY7yWL2hBllV0yWN-6" target="H5CAzMnDQQBlazkq3BZs-24">
          <mxGeometry relative="1" as="geometry">
            <Array as="points">
              <mxPoint x="-212" y="-500" />
              <mxPoint x="-560" y="-500" />
              <mxPoint x="-560" y="-359" />
            </Array>
          </mxGeometry>
        </mxCell>
        <mxCell id="cpDbJY7yWL2hBllV0yWN-6" value="&lt;b&gt;User_Registration_table&lt;/b&gt;" style="rounded=1;whiteSpace=wrap;html=1;fillColor=#ffffff;strokeColor=#b85450;" parent="1" vertex="1">
          <mxGeometry x="-249.84000000000003" y="-800" width="149.84" height="60" as="geometry" />
        </mxCell>
        <mxCell id="cpDbJY7yWL2hBllV0yWN-7" value="" style="endArrow=none;html=1;rounded=1;entryX=0.739;entryY=0.925;entryDx=0;entryDy=0;entryPerimeter=0;" parent="1" target="cpDbJY7yWL2hBllV0yWN-8" edge="1">
          <mxGeometry width="50" height="50" relative="1" as="geometry">
            <mxPoint x="-249.0322580645161" y="-799" as="sourcePoint" />
            <mxPoint x="-289.35483870967744" y="-859" as="targetPoint" />
          </mxGeometry>
        </mxCell>
        <mxCell id="cpDbJY7yWL2hBllV0yWN-9" value="" style="endArrow=none;html=1;rounded=1;exitX=1;exitY=0;exitDx=0;exitDy=0;entryX=0.5;entryY=1;entryDx=0;entryDy=0;" parent="1" target="cpDbJY7yWL2hBllV0yWN-10" edge="1">
          <mxGeometry width="50" height="50" relative="1" as="geometry">
            <mxPoint x="-183.70967741935488" y="-800" as="sourcePoint" />
            <mxPoint x="-129.67741935483878" y="-860" as="targetPoint" />
          </mxGeometry>
        </mxCell>
        <mxCell id="cpDbJY7yWL2hBllV0yWN-11" value="" style="endArrow=none;html=1;rounded=1;exitX=0.86;exitY=-0.05;exitDx=0;exitDy=0;entryX=0.5;entryY=1;entryDx=0;entryDy=0;exitPerimeter=0;" parent="1" source="cpDbJY7yWL2hBllV0yWN-6" target="cpDbJY7yWL2hBllV0yWN-12" edge="1">
          <mxGeometry width="50" height="50" relative="1" as="geometry">
            <mxPoint x="-109.99645161290317" y="-800" as="sourcePoint" />
            <mxPoint x="10.164838709677325" y="-833" as="targetPoint" />
          </mxGeometry>
        </mxCell>
        <mxCell id="cpDbJY7yWL2hBllV0yWN-13" value="" style="endArrow=none;html=1;rounded=1;exitX=0;exitY=0.75;exitDx=0;exitDy=0;" parent="1" source="cpDbJY7yWL2hBllV0yWN-6" target="cpDbJY7yWL2hBllV0yWN-14" edge="1">
          <mxGeometry width="50" height="50" relative="1" as="geometry">
            <mxPoint x="-250" y="-750" as="sourcePoint" />
            <mxPoint x="-361.9354838709678" y="-765" as="targetPoint" />
          </mxGeometry>
        </mxCell>
        <mxCell id="cpDbJY7yWL2hBllV0yWN-15" value="" style="endArrow=none;html=1;rounded=1;exitX=0.5;exitY=0;exitDx=0;exitDy=0;" parent="1" source="cpDbJY7yWL2hBllV0yWN-16" edge="1">
          <mxGeometry width="50" height="50" relative="1" as="geometry">
            <mxPoint x="-62.5322580645161" y="-766.9300000000001" as="sourcePoint" />
            <mxPoint x="-100" y="-773" as="targetPoint" />
          </mxGeometry>
        </mxCell>
        <mxCell id="cpDbJY7yWL2hBllV0yWN-16" value="Contact_Number" style="ellipse;whiteSpace=wrap;html=1;rounded=1;fillColor=#ffb6b3;strokeColor=#b85450;" parent="1" vertex="1">
          <mxGeometry x="-100" y="-704" width="112.9" height="72" as="geometry" />
        </mxCell>
        <mxCell id="cpDbJY7yWL2hBllV0yWN-17" value="" style="endArrow=none;html=1;rounded=1;exitX=0;exitY=1;exitDx=0;exitDy=0;entryX=1;entryY=0;entryDx=0;entryDy=0;" parent="1" source="cpDbJY7yWL2hBllV0yWN-6" target="cpDbJY7yWL2hBllV0yWN-18" edge="1">
          <mxGeometry width="50" height="50" relative="1" as="geometry">
            <mxPoint x="-249.8387096774194" y="-737.9200000000001" as="sourcePoint" />
            <mxPoint x="-337.74021504074676" y="-739.9996056723853" as="targetPoint" />
          </mxGeometry>
        </mxCell>
        <mxCell id="cpDbJY7yWL2hBllV0yWN-8" value="Email" style="ellipse;whiteSpace=wrap;html=1;rounded=1;fillColor=#ffb6b3;strokeColor=#b85450;" parent="1" vertex="1">
          <mxGeometry x="-393.3793548387096" y="-920" width="112.90322580645162" height="70" as="geometry" />
        </mxCell>
        <mxCell id="cpDbJY7yWL2hBllV0yWN-10" value="Name" style="ellipse;whiteSpace=wrap;html=1;rounded=1;fillColor=#ffb6b3;strokeColor=#b85450;" parent="1" vertex="1">
          <mxGeometry x="-242.58903225806452" y="-950" width="112.90322580645162" height="70" as="geometry" />
        </mxCell>
        <mxCell id="cpDbJY7yWL2hBllV0yWN-12" value="&lt;u&gt;User_id&lt;/u&gt;" style="ellipse;whiteSpace=wrap;html=1;rounded=1;fillColor=#ffb6b3;strokeColor=#b85450;" parent="1" vertex="1">
          <mxGeometry x="-102.1922580645161" y="-940" width="112.90322580645162" height="70" as="geometry" />
        </mxCell>
        <mxCell id="cpDbJY7yWL2hBllV0yWN-14" value="Password" style="ellipse;whiteSpace=wrap;html=1;rounded=1;fillColor=#ffb6b3;strokeColor=#b85450;" parent="1" vertex="1">
          <mxGeometry x="-420" y="-769" width="112.90322580645162" height="62" as="geometry" />
        </mxCell>
        <mxCell id="cpDbJY7yWL2hBllV0yWN-18" value="Status" style="ellipse;whiteSpace=wrap;html=1;rounded=1;fillColor=#ffb6b3;strokeColor=#b85450;" parent="1" vertex="1">
          <mxGeometry x="-382.9" y="-670" width="112.90322580645162" height="62" as="geometry" />
        </mxCell>
        <mxCell id="bc5BipVRxAQqG_2fC1Nc-144" value="&lt;u&gt;Role_id&lt;/u&gt;" style="ellipse;whiteSpace=wrap;html=1;rounded=1;fillColor=#ffb6b3;strokeColor=#b85450;" parent="1" vertex="1">
          <mxGeometry x="-190" y="-637.3299999999999" width="120.95" height="73.65" as="geometry" />
        </mxCell>
        <mxCell id="bc5BipVRxAQqG_2fC1Nc-147" value="" style="endArrow=none;html=1;rounded=1;entryX=0.5;entryY=0;entryDx=0;entryDy=0;exitX=0.5;exitY=1;exitDx=0;exitDy=0;" parent="1" source="cpDbJY7yWL2hBllV0yWN-6" target="bc5BipVRxAQqG_2fC1Nc-144" edge="1">
          <mxGeometry width="50" height="50" relative="1" as="geometry">
            <mxPoint x="-339.6822580645161" y="-827" as="sourcePoint" />
            <mxPoint x="-380.0048387096774" y="-887" as="targetPoint" />
          </mxGeometry>
        </mxCell>
        <mxCell id="bc5BipVRxAQqG_2fC1Nc-154" style="edgeStyle=orthogonalEdgeStyle;rounded=0;orthogonalLoop=1;jettySize=auto;html=1;entryX=0;entryY=0.25;entryDx=0;entryDy=0;" parent="1" source="bc5BipVRxAQqG_2fC1Nc-150" target="cpDbJY7yWL2hBllV0yWN-6" edge="1">
          <mxGeometry relative="1" as="geometry" />
        </mxCell>
        <mxCell id="bc5BipVRxAQqG_2fC1Nc-150" value="Is&lt;div&gt;ASSIGNED&lt;/div&gt;" style="rhombus;whiteSpace=wrap;html=1;" parent="1" vertex="1">
          <mxGeometry x="-620" y="-867" width="110" height="89" as="geometry" />
        </mxCell>
        <mxCell id="bc5BipVRxAQqG_2fC1Nc-153" style="edgeStyle=orthogonalEdgeStyle;rounded=0;orthogonalLoop=1;jettySize=auto;html=1;exitX=0.5;exitY=0;exitDx=0;exitDy=0;entryX=0;entryY=0.5;entryDx=0;entryDy=0;" parent="1" source="cpDbJY7yWL2hBllV0yWN-1" target="bc5BipVRxAQqG_2fC1Nc-150" edge="1">
          <mxGeometry relative="1" as="geometry" />
        </mxCell>
        <mxCell id="bc5BipVRxAQqG_2fC1Nc-156" value="Many" style="text;html=1;align=center;verticalAlign=middle;resizable=0;points=[];autosize=1;strokeColor=none;fillColor=none;" parent="1" vertex="1">
          <mxGeometry x="-365" y="-822" width="50" height="30" as="geometry" />
        </mxCell>
        <mxCell id="bc5BipVRxAQqG_2fC1Nc-165" style="edgeStyle=orthogonalEdgeStyle;rounded=0;orthogonalLoop=1;jettySize=auto;html=1;exitX=1;exitY=0.5;exitDx=0;exitDy=0;entryX=0.5;entryY=0;entryDx=0;entryDy=0;" parent="1" source="bc5BipVRxAQqG_2fC1Nc-163" target="cpDbJY7yWL2hBllV0yWN-19" edge="1">
          <mxGeometry relative="1" as="geometry" />
        </mxCell>
        <mxCell id="bc5BipVRxAQqG_2fC1Nc-163" value="OWNS" style="rhombus;whiteSpace=wrap;html=1;" parent="1" vertex="1">
          <mxGeometry x="119.99999999999999" y="-930" width="80" height="80" as="geometry" />
        </mxCell>
        <mxCell id="bc5BipVRxAQqG_2fC1Nc-167" value="HAS&lt;div&gt;&lt;br&gt;&lt;/div&gt;" style="rhombus;whiteSpace=wrap;html=1;" parent="1" vertex="1">
          <mxGeometry x="590" y="-810" width="80" height="80" as="geometry" />
        </mxCell>
        <mxCell id="bc5BipVRxAQqG_2fC1Nc-169" style="edgeStyle=orthogonalEdgeStyle;rounded=0;orthogonalLoop=1;jettySize=auto;html=1;exitX=1;exitY=0.25;exitDx=0;exitDy=0;entryX=0;entryY=0.5;entryDx=0;entryDy=0;" parent="1" source="cpDbJY7yWL2hBllV0yWN-19" target="bc5BipVRxAQqG_2fC1Nc-167" edge="1">
          <mxGeometry relative="1" as="geometry">
            <Array as="points">
              <mxPoint x="430" y="-638" />
              <mxPoint x="430" y="-680" />
              <mxPoint x="550" y="-680" />
              <mxPoint x="550" y="-770" />
            </Array>
          </mxGeometry>
        </mxCell>
        <mxCell id="bc5BipVRxAQqG_2fC1Nc-174" style="edgeStyle=orthogonalEdgeStyle;rounded=0;orthogonalLoop=1;jettySize=auto;html=1;entryX=0.386;entryY=-0.027;entryDx=0;entryDy=0;entryPerimeter=0;" parent="1" source="bc5BipVRxAQqG_2fC1Nc-167" target="cpDbJY7yWL2hBllV0yWN-40" edge="1">
          <mxGeometry relative="1" as="geometry" />
        </mxCell>
        <mxCell id="bc5BipVRxAQqG_2fC1Nc-175" value="1" style="text;html=1;align=center;verticalAlign=middle;resizable=0;points=[];autosize=1;strokeColor=none;fillColor=none;" parent="1" vertex="1">
          <mxGeometry x="395" y="-662" width="30" height="30" as="geometry" />
        </mxCell>
        <mxCell id="bc5BipVRxAQqG_2fC1Nc-178" style="edgeStyle=orthogonalEdgeStyle;rounded=0;orthogonalLoop=1;jettySize=auto;html=1;entryX=0.5;entryY=0;entryDx=0;entryDy=0;" parent="1" source="bc5BipVRxAQqG_2fC1Nc-177" target="cpDbJY7yWL2hBllV0yWN-49" edge="1">
          <mxGeometry relative="1" as="geometry" />
        </mxCell>
        <mxCell id="bc5BipVRxAQqG_2fC1Nc-177" value="HAS" style="rhombus;whiteSpace=wrap;html=1;" parent="1" vertex="1">
          <mxGeometry x="537.14" y="-420" width="80" height="80" as="geometry" />
        </mxCell>
        <mxCell id="bc5BipVRxAQqG_2fC1Nc-179" style="edgeStyle=orthogonalEdgeStyle;rounded=0;orthogonalLoop=1;jettySize=auto;html=1;entryX=0;entryY=0.5;entryDx=0;entryDy=0;exitX=0.361;exitY=1.022;exitDx=0;exitDy=0;exitPerimeter=0;" parent="1" source="cpDbJY7yWL2hBllV0yWN-19" target="bc5BipVRxAQqG_2fC1Nc-177" edge="1">
          <mxGeometry relative="1" as="geometry">
            <Array as="points">
              <mxPoint x="250" y="-570" />
              <mxPoint x="250" y="-560" />
              <mxPoint x="270" y="-560" />
              <mxPoint x="270" y="-380" />
            </Array>
          </mxGeometry>
        </mxCell>
        <mxCell id="bc5BipVRxAQqG_2fC1Nc-180" value="1" style="text;html=1;align=center;verticalAlign=middle;resizable=0;points=[];autosize=1;strokeColor=none;fillColor=none;" parent="1" vertex="1">
          <mxGeometry x="275" y="-562" width="30" height="30" as="geometry" />
        </mxCell>
        <mxCell id="bc5BipVRxAQqG_2fC1Nc-181" value="MANY" style="text;html=1;align=center;verticalAlign=middle;resizable=0;points=[];autosize=1;strokeColor=none;fillColor=none;" parent="1" vertex="1">
          <mxGeometry x="590" y="-252" width="60" height="30" as="geometry" />
        </mxCell>
        <mxCell id="bc5BipVRxAQqG_2fC1Nc-183" value="" style="group;rotation=0;" parent="1" vertex="1" connectable="0">
          <mxGeometry x="-1060" y="-189.99582138919516" width="536.14" height="304.73582138919517" as="geometry" />
        </mxCell>
        <mxCell id="cpDbJY7yWL2hBllV0yWN-100" value="" style="endArrow=none;html=1;rounded=1;exitX=0.25;exitY=1;exitDx=0;exitDy=0;entryX=0.613;entryY=-0.053;entryDx=0;entryDy=0;entryPerimeter=0;" parent="bc5BipVRxAQqG_2fC1Nc-183" source="cpDbJY7yWL2hBllV0yWN-99" target="IA1sd14LEg_ALcvdbZs_-53" edge="1">
          <mxGeometry width="50" height="50" relative="1" as="geometry">
            <mxPoint x="70" y="30" as="sourcePoint" />
            <mxPoint x="70" y="160" as="targetPoint" />
          </mxGeometry>
        </mxCell>
        <mxCell id="cpDbJY7yWL2hBllV0yWN-106" value="" style="endArrow=none;html=1;rounded=1;exitX=0;exitY=0.5;exitDx=0;exitDy=0;entryX=1;entryY=0.5;entryDx=0;entryDy=0;" parent="bc5BipVRxAQqG_2fC1Nc-183" source="cpDbJY7yWL2hBllV0yWN-107" target="cpDbJY7yWL2hBllV0yWN-99" edge="1">
          <mxGeometry width="50" height="50" relative="1" as="geometry">
            <mxPoint x="323" y="63" as="sourcePoint" />
            <mxPoint x="251" y="57" as="targetPoint" />
          </mxGeometry>
        </mxCell>
        <mxCell id="cpDbJY7yWL2hBllV0yWN-109" value="" style="endArrow=none;html=1;rounded=1;exitX=1;exitY=1;exitDx=0;exitDy=0;entryX=0;entryY=0.5;entryDx=0;entryDy=0;" parent="bc5BipVRxAQqG_2fC1Nc-183" source="cpDbJY7yWL2hBllV0yWN-99" target="cpDbJY7yWL2hBllV0yWN-108" edge="1">
          <mxGeometry width="50" height="50" relative="1" as="geometry">
            <mxPoint x="251" y="79" as="sourcePoint" />
            <mxPoint x="338" y="187" as="targetPoint" />
          </mxGeometry>
        </mxCell>
        <mxCell id="cpDbJY7yWL2hBllV0yWN-111" value="" style="endArrow=none;html=1;rounded=1;exitX=0.75;exitY=1;exitDx=0;exitDy=0;" parent="bc5BipVRxAQqG_2fC1Nc-183" source="cpDbJY7yWL2hBllV0yWN-99" target="cpDbJY7yWL2hBllV0yWN-110" edge="1">
          <mxGeometry width="50" height="50" relative="1" as="geometry">
            <mxPoint x="28" y="162" as="sourcePoint" />
            <mxPoint x="180" y="180" as="targetPoint" />
          </mxGeometry>
        </mxCell>
        <mxCell id="cpDbJY7yWL2hBllV0yWN-99" value="&lt;b&gt;review_table&lt;/b&gt;" style="rounded=1;whiteSpace=wrap;html=1;fillColor=#ffffff;strokeColor=#b85450;rotation=0;" parent="bc5BipVRxAQqG_2fC1Nc-183" vertex="1">
          <mxGeometry x="70" y="20" width="160" height="60" as="geometry" />
        </mxCell>
        <mxCell id="cpDbJY7yWL2hBllV0yWN-104" value="" style="endArrow=none;html=1;rounded=1;exitX=1;exitY=0.25;exitDx=0;exitDy=0;entryX=0;entryY=0.5;entryDx=0;entryDy=0;" parent="bc5BipVRxAQqG_2fC1Nc-183" source="cpDbJY7yWL2hBllV0yWN-99" target="cpDbJY7yWL2hBllV0yWN-105" edge="1">
          <mxGeometry width="50" height="50" relative="1" as="geometry">
            <mxPoint x="227" y="20" as="sourcePoint" />
            <mxPoint x="376" y="-13" as="targetPoint" />
          </mxGeometry>
        </mxCell>
        <mxCell id="cpDbJY7yWL2hBllV0yWN-105" value="&lt;div&gt;venu_id&lt;/div&gt;" style="ellipse;whiteSpace=wrap;html=1;rounded=1;fillColor=#ffb6b3;strokeColor=#b85450;rotation=0;" parent="bc5BipVRxAQqG_2fC1Nc-183" vertex="1">
          <mxGeometry x="396" width="140" height="65.60088202866592" as="geometry" />
        </mxCell>
        <mxCell id="cpDbJY7yWL2hBllV0yWN-102" value="" style="endArrow=none;html=1;rounded=1;exitX=0.5;exitY=1;exitDx=0;exitDy=0;entryX=0.5;entryY=0;entryDx=0;entryDy=0;" parent="bc5BipVRxAQqG_2fC1Nc-183" edge="1" target="IA1sd14LEg_ALcvdbZs_-54" source="cpDbJY7yWL2hBllV0yWN-99">
          <mxGeometry width="50" height="50" relative="1" as="geometry">
            <mxPoint x="160" y="100" as="sourcePoint" />
            <mxPoint x="190" y="230" as="targetPoint" />
          </mxGeometry>
        </mxCell>
        <mxCell id="cpDbJY7yWL2hBllV0yWN-107" value="conmment" style="ellipse;whiteSpace=wrap;html=1;rounded=1;fillColor=#ffb6b3;strokeColor=#b85450;rotation=0;" parent="bc5BipVRxAQqG_2fC1Nc-183" vertex="1">
          <mxGeometry x="384" y="80" width="140" height="62" as="geometry" />
        </mxCell>
        <mxCell id="cpDbJY7yWL2hBllV0yWN-108" value="rating" style="ellipse;whiteSpace=wrap;html=1;rounded=1;fillColor=#ffb6b3;strokeColor=#b85450;rotation=0;" parent="bc5BipVRxAQqG_2fC1Nc-183" vertex="1">
          <mxGeometry x="380" y="160" width="140" height="62" as="geometry" />
        </mxCell>
        <mxCell id="cpDbJY7yWL2hBllV0yWN-110" value="review_date" style="ellipse;whiteSpace=wrap;html=1;rounded=1;fillColor=#ffb6b3;strokeColor=#b85450;rotation=0;" parent="bc5BipVRxAQqG_2fC1Nc-183" vertex="1">
          <mxGeometry x="300" y="235" width="140" height="62" as="geometry" />
        </mxCell>
        <mxCell id="IA1sd14LEg_ALcvdbZs_-53" value="&lt;u&gt;review_id&lt;/u&gt;" style="ellipse;whiteSpace=wrap;html=1;rounded=1;fillColor=#ffb6b3;strokeColor=#b85450;rotation=0;" parent="bc5BipVRxAQqG_2fC1Nc-183" vertex="1">
          <mxGeometry y="180" width="140" height="70" as="geometry" />
        </mxCell>
        <mxCell id="IA1sd14LEg_ALcvdbZs_-54" value="user_id" style="ellipse;whiteSpace=wrap;html=1;rounded=1;fillColor=#ffb6b3;strokeColor=#b85450;rotation=0;" parent="bc5BipVRxAQqG_2fC1Nc-183" vertex="1">
          <mxGeometry x="120" y="235" width="146" height="70" as="geometry" />
        </mxCell>
        <mxCell id="IA1sd14LEg_ALcvdbZs_-51" value="review_date" style="ellipse;whiteSpace=wrap;html=1;rounded=1;fillColor=#ffb6b3;strokeColor=#b85450;" parent="1" vertex="1">
          <mxGeometry x="-1130" y="-87.00000000000023" width="140" height="62" as="geometry" />
        </mxCell>
        <mxCell id="fpA21ThHBKz3KaMvRYJ7-153" value="&lt;u&gt;venu_id&lt;/u&gt;" style="ellipse;whiteSpace=wrap;html=1;rounded=1;points=[[0,0,0,0,0],[0,0.5,0,0,0],[0,1,0,0,0],[0.5,0,0,0,0],[0.5,1,0,0,0],[1,0,0,0,0],[1,0.5,0,0,0],[1,1,0,0,0]];fillColor=#ffb6b3;strokeColor=#b85450;" parent="1" vertex="1">
          <mxGeometry x="129.99882352941177" y="-130" width="102.94117647058822" height="55.68181818181818" as="geometry" />
        </mxCell>
        <mxCell id="fpA21ThHBKz3KaMvRYJ7-151" value="" style="endArrow=none;html=1;rounded=1;exitX=0.75;exitY=1;exitDx=0;exitDy=0;entryX=0.438;entryY=0.002;entryDx=0;entryDy=0;entryPerimeter=0;" parent="1" source="fpA21ThHBKz3KaMvRYJ7-148" target="fpA21ThHBKz3KaMvRYJ7-153" edge="1">
          <mxGeometry width="50" height="50" relative="1" as="geometry">
            <mxPoint x="-17.794117647058833" y="-243.86363636363637" as="sourcePoint" />
            <mxPoint x="221.17647058823525" y="-302.72727272727275" as="targetPoint" />
          </mxGeometry>
        </mxCell>
        <mxCell id="fpA21ThHBKz3KaMvRYJ7-150" value="&lt;u&gt;User_id&lt;/u&gt;" style="ellipse;whiteSpace=wrap;html=1;rounded=1;fillColor=#ffb6b3;strokeColor=#b85450;" parent="1" vertex="1">
          <mxGeometry y="-130" width="102.94117647058822" height="55.68181818181818" as="geometry" />
        </mxCell>
        <mxCell id="fpA21ThHBKz3KaMvRYJ7-149" value="" style="endArrow=none;html=1;rounded=1;exitX=0.322;exitY=1.059;exitDx=0;exitDy=0;entryX=0.576;entryY=0.041;entryDx=0;entryDy=0;entryPerimeter=0;exitPerimeter=0;" parent="1" source="fpA21ThHBKz3KaMvRYJ7-148" target="fpA21ThHBKz3KaMvRYJ7-150" edge="1">
          <mxGeometry width="50" height="50" relative="1" as="geometry">
            <mxPoint x="-241.17647058823528" y="-246.36363636363637" as="sourcePoint" />
            <mxPoint x="-131.61764705882354" y="-272.6136363636364" as="targetPoint" />
          </mxGeometry>
        </mxCell>
        <mxCell id="bc5BipVRxAQqG_2fC1Nc-2" style="edgeStyle=orthogonalEdgeStyle;rounded=0;orthogonalLoop=1;jettySize=auto;html=1;exitX=0.5;exitY=0;exitDx=0;exitDy=0;" parent="1" source="fpA21ThHBKz3KaMvRYJ7-148" edge="1">
          <mxGeometry relative="1" as="geometry">
            <mxPoint x="111.11111111111086" y="-220" as="targetPoint" />
          </mxGeometry>
        </mxCell>
        <mxCell id="fpA21ThHBKz3KaMvRYJ7-148" value="&lt;b&gt;&lt;font style=&quot;font-size: 14px;&quot;&gt;User_Venue&lt;/font&gt;&lt;/b&gt;" style="rounded=1;whiteSpace=wrap;html=1;fillColor=#ffffff;strokeColor=#b85450;" parent="1" vertex="1">
          <mxGeometry x="52.94117647058822" y="-217.72727272727272" width="117.6470588235294" height="47.72727272727273" as="geometry" />
        </mxCell>
        <mxCell id="H5CAzMnDQQBlazkq3BZs-9" style="edgeStyle=orthogonalEdgeStyle;rounded=0;orthogonalLoop=1;jettySize=auto;html=1;entryX=0;entryY=0.25;entryDx=0;entryDy=0;" edge="1" parent="1" source="H5CAzMnDQQBlazkq3BZs-7" target="cpDbJY7yWL2hBllV0yWN-56">
          <mxGeometry relative="1" as="geometry" />
        </mxCell>
        <mxCell id="H5CAzMnDQQBlazkq3BZs-7" value="BOOKS" style="rhombus;whiteSpace=wrap;html=1;" vertex="1" parent="1">
          <mxGeometry x="-483" y="130" width="80" height="80" as="geometry" />
        </mxCell>
        <mxCell id="H5CAzMnDQQBlazkq3BZs-10" value="1" style="text;html=1;align=center;verticalAlign=middle;resizable=0;points=[];autosize=1;strokeColor=none;fillColor=none;" vertex="1" parent="1">
          <mxGeometry x="-201.14" y="-730" width="30" height="30" as="geometry" />
        </mxCell>
        <mxCell id="H5CAzMnDQQBlazkq3BZs-11" value="MANY" style="text;html=1;align=center;verticalAlign=middle;resizable=0;points=[];autosize=1;strokeColor=none;fillColor=none;" vertex="1" parent="1">
          <mxGeometry x="-440" y="308" width="60" height="30" as="geometry" />
        </mxCell>
        <mxCell id="H5CAzMnDQQBlazkq3BZs-12" value="BOOKED" style="rhombus;whiteSpace=wrap;html=1;" vertex="1" parent="1">
          <mxGeometry x="-230" y="-210" width="80" height="80" as="geometry" />
        </mxCell>
        <mxCell id="H5CAzMnDQQBlazkq3BZs-13" style="edgeStyle=orthogonalEdgeStyle;rounded=0;orthogonalLoop=1;jettySize=auto;html=1;exitX=0.25;exitY=1;exitDx=0;exitDy=0;" edge="1" parent="1" source="cpDbJY7yWL2hBllV0yWN-19">
          <mxGeometry relative="1" as="geometry">
            <mxPoint x="-190" y="-210" as="targetPoint" />
          </mxGeometry>
        </mxCell>
        <mxCell id="H5CAzMnDQQBlazkq3BZs-14" style="edgeStyle=orthogonalEdgeStyle;rounded=0;orthogonalLoop=1;jettySize=auto;html=1;exitX=0.5;exitY=1;exitDx=0;exitDy=0;entryX=0.149;entryY=0.054;entryDx=0;entryDy=0;entryPerimeter=0;" edge="1" parent="1" source="H5CAzMnDQQBlazkq3BZs-12" target="cpDbJY7yWL2hBllV0yWN-56">
          <mxGeometry relative="1" as="geometry" />
        </mxCell>
        <mxCell id="H5CAzMnDQQBlazkq3BZs-15" value="1" style="text;html=1;align=center;verticalAlign=middle;resizable=0;points=[];autosize=1;strokeColor=none;fillColor=none;" vertex="1" parent="1">
          <mxGeometry x="215" y="-552" width="30" height="30" as="geometry" />
        </mxCell>
        <mxCell id="H5CAzMnDQQBlazkq3BZs-19" style="edgeStyle=orthogonalEdgeStyle;rounded=0;orthogonalLoop=1;jettySize=auto;html=1;exitX=0.5;exitY=1;exitDx=0;exitDy=0;entryX=0;entryY=0.5;entryDx=0;entryDy=0;" edge="1" parent="1" source="H5CAzMnDQQBlazkq3BZs-17" target="cpDbJY7yWL2hBllV0yWN-88">
          <mxGeometry relative="1" as="geometry" />
        </mxCell>
        <mxCell id="H5CAzMnDQQBlazkq3BZs-17" value="USE" style="rhombus;whiteSpace=wrap;html=1;" vertex="1" parent="1">
          <mxGeometry x="165" y="650" width="80" height="80" as="geometry" />
        </mxCell>
        <mxCell id="H5CAzMnDQQBlazkq3BZs-18" style="edgeStyle=orthogonalEdgeStyle;rounded=0;orthogonalLoop=1;jettySize=auto;html=1;exitX=0;exitY=0.5;exitDx=0;exitDy=0;entryX=0.5;entryY=0;entryDx=0;entryDy=0;" edge="1" parent="1" source="cpDbJY7yWL2hBllV0yWN-75" target="H5CAzMnDQQBlazkq3BZs-17">
          <mxGeometry relative="1" as="geometry" />
        </mxCell>
        <mxCell id="H5CAzMnDQQBlazkq3BZs-20" value="1" style="text;html=1;align=center;verticalAlign=middle;resizable=0;points=[];autosize=1;strokeColor=none;fillColor=none;" vertex="1" parent="1">
          <mxGeometry x="275" y="408" width="30" height="30" as="geometry" />
        </mxCell>
        <mxCell id="H5CAzMnDQQBlazkq3BZs-21" value="MANY" style="text;html=1;align=center;verticalAlign=middle;resizable=0;points=[];autosize=1;strokeColor=none;fillColor=none;" vertex="1" parent="1">
          <mxGeometry x="310" y="868" width="60" height="30" as="geometry" />
        </mxCell>
        <mxCell id="H5CAzMnDQQBlazkq3BZs-25" style="edgeStyle=orthogonalEdgeStyle;rounded=0;orthogonalLoop=1;jettySize=auto;html=1;exitX=0.5;exitY=1;exitDx=0;exitDy=0;" edge="1" parent="1" source="H5CAzMnDQQBlazkq3BZs-24" target="cpDbJY7yWL2hBllV0yWN-99">
          <mxGeometry relative="1" as="geometry" />
        </mxCell>
        <mxCell id="H5CAzMnDQQBlazkq3BZs-24" value="WRITES" style="rhombus;whiteSpace=wrap;html=1;" vertex="1" parent="1">
          <mxGeometry x="-705" y="-359" width="80" height="80" as="geometry" />
        </mxCell>
        <mxCell id="H5CAzMnDQQBlazkq3BZs-31" style="edgeStyle=orthogonalEdgeStyle;rounded=0;orthogonalLoop=1;jettySize=auto;html=1;exitX=0.5;exitY=0;exitDx=0;exitDy=0;entryX=0.67;entryY=0.013;entryDx=0;entryDy=0;entryPerimeter=0;" edge="1" parent="1" source="H5CAzMnDQQBlazkq3BZs-27" target="cpDbJY7yWL2hBllV0yWN-19">
          <mxGeometry relative="1" as="geometry">
            <mxPoint x="281.99996948242233" y="-650" as="targetPoint" />
            <Array as="points">
              <mxPoint x="-840" y="-430" />
              <mxPoint x="-870" y="-430" />
              <mxPoint x="-870" y="-1000" />
              <mxPoint x="280" y="-1000" />
              <mxPoint x="280" y="-641" />
            </Array>
          </mxGeometry>
        </mxCell>
        <mxCell id="H5CAzMnDQQBlazkq3BZs-27" value="RECIVES" style="rhombus;whiteSpace=wrap;html=1;" vertex="1" parent="1">
          <mxGeometry x="-880" y="-380" width="80" height="80" as="geometry" />
        </mxCell>
        <mxCell id="H5CAzMnDQQBlazkq3BZs-29" style="edgeStyle=orthogonalEdgeStyle;rounded=0;orthogonalLoop=1;jettySize=auto;html=1;exitX=0;exitY=0.5;exitDx=0;exitDy=0;entryX=0.25;entryY=0;entryDx=0;entryDy=0;" edge="1" parent="1" source="H5CAzMnDQQBlazkq3BZs-27" target="cpDbJY7yWL2hBllV0yWN-99">
          <mxGeometry relative="1" as="geometry" />
        </mxCell>
        <mxCell id="H5CAzMnDQQBlazkq3BZs-35" style="edgeStyle=orthogonalEdgeStyle;rounded=0;orthogonalLoop=1;jettySize=auto;html=1;entryX=0;entryY=0;entryDx=0;entryDy=0;" edge="1" parent="1" source="H5CAzMnDQQBlazkq3BZs-33" target="cpDbJY7yWL2hBllV0yWN-75">
          <mxGeometry relative="1" as="geometry" />
        </mxCell>
        <mxCell id="H5CAzMnDQQBlazkq3BZs-33" value="TRIGGERS" style="rhombus;whiteSpace=wrap;html=1;" vertex="1" parent="1">
          <mxGeometry x="67" y="269" width="80" height="80" as="geometry" />
        </mxCell>
        <mxCell id="H5CAzMnDQQBlazkq3BZs-32" style="edgeStyle=orthogonalEdgeStyle;rounded=0;orthogonalLoop=1;jettySize=auto;html=1;exitX=1;exitY=0.5;exitDx=0;exitDy=0;entryX=0.5;entryY=1;entryDx=0;entryDy=0;" edge="1" parent="1" source="cpDbJY7yWL2hBllV0yWN-56" target="H5CAzMnDQQBlazkq3BZs-33">
          <mxGeometry relative="1" as="geometry">
            <mxPoint x="80" y="360" as="targetPoint" />
          </mxGeometry>
        </mxCell>
        <mxCell id="H5CAzMnDQQBlazkq3BZs-36" value="1" style="text;html=1;align=center;verticalAlign=middle;resizable=0;points=[];autosize=1;strokeColor=none;fillColor=none;" vertex="1" parent="1">
          <mxGeometry x="-215" y="398" width="30" height="30" as="geometry" />
        </mxCell>
        <mxCell id="H5CAzMnDQQBlazkq3BZs-37" value="MANY" style="text;html=1;align=center;verticalAlign=middle;resizable=0;points=[];autosize=1;strokeColor=none;fillColor=none;" vertex="1" parent="1">
          <mxGeometry x="270" y="338" width="60" height="30" as="geometry" />
        </mxCell>
        <mxCell id="H5CAzMnDQQBlazkq3BZs-38" value="1" style="text;html=1;align=center;verticalAlign=middle;resizable=0;points=[];autosize=1;strokeColor=none;fillColor=none;" vertex="1" parent="1">
          <mxGeometry x="-242.59" y="-734" width="30" height="30" as="geometry" />
        </mxCell>
        <mxCell id="H5CAzMnDQQBlazkq3BZs-39" value="MANY" style="text;html=1;align=center;verticalAlign=middle;resizable=0;points=[];autosize=1;strokeColor=none;fillColor=none;" vertex="1" parent="1">
          <mxGeometry x="-920" y="-222" width="60" height="30" as="geometry" />
        </mxCell>
        <mxCell id="H5CAzMnDQQBlazkq3BZs-40" value="MANY" style="text;html=1;align=center;verticalAlign=middle;resizable=0;points=[];autosize=1;strokeColor=none;fillColor=none;" vertex="1" parent="1">
          <mxGeometry x="-1040" y="-232" width="60" height="30" as="geometry" />
        </mxCell>
        <mxCell id="H5CAzMnDQQBlazkq3BZs-41" value="1" style="text;html=1;align=center;verticalAlign=middle;resizable=0;points=[];autosize=1;strokeColor=none;fillColor=none;" vertex="1" parent="1">
          <mxGeometry x="-99.05000000000001" y="-810" width="30" height="30" as="geometry" />
        </mxCell>
        <mxCell id="H5CAzMnDQQBlazkq3BZs-42" value="1" style="text;html=1;align=center;verticalAlign=middle;resizable=0;points=[];autosize=1;strokeColor=none;fillColor=none;" vertex="1" parent="1">
          <mxGeometry x="275" y="-692" width="30" height="30" as="geometry" />
        </mxCell>
        <mxCell id="H5CAzMnDQQBlazkq3BZs-43" value="MANY" style="text;html=1;align=center;verticalAlign=middle;resizable=0;points=[];autosize=1;strokeColor=none;fillColor=none;" vertex="1" parent="1">
          <mxGeometry x="220" y="-692" width="60" height="30" as="geometry" />
        </mxCell>
        <mxCell id="H5CAzMnDQQBlazkq3BZs-44" value="" style="endArrow=none;html=1;rounded=1;exitX=0;exitY=0.5;exitDx=0;exitDy=0;entryX=0.5;entryY=0;entryDx=0;entryDy=0;" edge="1" parent="1" source="cpDbJY7yWL2hBllV0yWN-99" target="IA1sd14LEg_ALcvdbZs_-51">
          <mxGeometry width="50" height="50" relative="1" as="geometry">
            <mxPoint x="-1036" y="-179.99582138919516" as="sourcePoint" />
            <mxPoint x="-1060" y="-83.99582138919516" as="targetPoint" />
          </mxGeometry>
        </mxCell>
      </root>
    </mxGraphModel>
  </diagram>
</mxfile>
